<?xml version="1.0" standalone="no"?>
<svg xmlns:xlink="http://www.w3.org/1999/xlink" id="wave" style="transform:rotate(180deg); transition: 0.3s" viewBox="0 0 1440 380" version="1.1" xmlns="http://www.w3.org/2000/svg"><defs><linearGradient id="sw-gradient-0" x1="0" x2="0" y1="1" y2="0"><stop stop-color="rgba(24, 27, 77, 1)" offset="0%"/><stop stop-color="rgba(24, 27, 77, 1)" offset="100%"/></linearGradient></defs><path style="transform:translate(0, 0px); opacity:1" fill="url(#sw-gradient-0)" d="M0,190L48,196.3C96,203,192,215,288,209C384,203,480,177,576,158.3C672,139,768,127,864,133C960,139,1056,165,1152,183.7C1248,203,1344,215,1440,196.3C1536,177,1632,127,1728,114C1824,101,1920,127,2016,171C2112,215,2208,279,2304,304C2400,329,2496,317,2592,291.3C2688,266,2784,228,2880,196.3C2976,165,3072,139,3168,158.3C3264,177,3360,241,3456,266C3552,291,3648,279,3744,266C3840,253,3936,241,4032,240.7C4128,241,4224,253,4320,240.7C4416,228,4512,190,4608,196.3C4704,203,4800,253,4896,266C4992,279,5088,253,5184,202.7C5280,152,5376,76,5472,88.7C5568,101,5664,203,5760,228C5856,253,5952,203,6048,183.7C6144,165,6240,177,6336,209C6432,241,6528,291,6624,304C6720,317,6816,291,6864,278.7L6912,266L6912,380L6864,380C6816,380,6720,380,6624,380C6528,380,6432,380,6336,380C6240,380,6144,380,6048,380C5952,380,5856,380,5760,380C5664,380,5568,380,5472,380C5376,380,5280,380,5184,380C5088,380,4992,380,4896,380C4800,380,4704,380,4608,380C4512,380,4416,380,4320,380C4224,380,4128,380,4032,380C3936,380,3840,380,3744,380C3648,380,3552,380,3456,380C3360,380,3264,380,3168,380C3072,380,2976,380,2880,380C2784,380,2688,380,2592,380C2496,380,2400,380,2304,380C2208,380,2112,380,2016,380C1920,380,1824,380,1728,380C1632,380,1536,380,1440,380C1344,380,1248,380,1152,380C1056,380,960,380,864,380C768,380,672,380,576,380C480,380,384,380,288,380C192,380,96,380,48,380L0,380Z"/></svg>